<svg width="29" height="25" viewBox="0 0 29 25" fill="none" xmlns="http://www.w3.org/2000/svg">
<path d="M1 19.7998H7.66667" stroke="white" stroke-width="2" stroke-miterlimit="10" stroke-linecap="round" stroke-linejoin="round"/>
<path d="M27.6667 5.13379H21" stroke="white" stroke-width="2" stroke-miterlimit="10" stroke-linecap="round" stroke-linejoin="round"/>
<path d="M15.666 19.7998H27.666" stroke="white" stroke-width="2" stroke-miterlimit="10" stroke-linecap="round" stroke-linejoin="round"/>
<path d="M13 5.13379H1" stroke="white" stroke-width="2" stroke-miterlimit="10" stroke-linecap="round" stroke-linejoin="round"/>
<path d="M11.666 23.667C9.45688 23.667 7.66602 21.8762 7.66602 19.667C7.66602 17.4578 9.45688 15.667 11.666 15.667C13.8752 15.667 15.666 17.4578 15.666 19.667C15.666 21.8762 13.8752 23.667 11.666 23.667Z" stroke="white" stroke-width="2" stroke-miterlimit="10" stroke-linecap="round" stroke-linejoin="round"/>
<path d="M17 9C19.2092 9 21 7.20915 21 5C21 2.79087 19.2092 1 17 1C14.7908 1 13 2.79087 13 5C13 7.20915 14.7908 9 17 9Z" stroke="white" stroke-width="2" stroke-miterlimit="10" stroke-linecap="round" stroke-linejoin="round"/>
</svg>
