<svg width="32" height="32" viewBox="0 0 32 32" fill="none" xmlns="http://www.w3.org/2000/svg">
<path d="M16.5324 17.0848L30.5424 9.77735C30.5424 9.77735 30.5474 9.59235 30.5424 9.46235L14.9649 2.70735C14.9335 2.69374 14.8995 2.68734 14.8653 2.68864C14.8311 2.68994 14.7977 2.6989 14.7674 2.71485L1.22239 9.87985C1.16989 9.90735 1.13989 9.95985 1.13989 10.0173V23.2548C1.13989 23.4098 1.22739 23.5523 1.36239 23.6223L1.78239 23.8398C2.16239 24.0348 15.7699 31.1574 16.2199 30.9949C16.3524 30.9473 16.4524 30.8573 16.5324 30.7498V17.0848Z" fill="#F07114"/>
<path d="M16.1744 16.8301C17.8369 16.0276 30.5619 9.88506 30.5419 9.46256L14.9544 2.70256C14.9258 2.69018 14.8948 2.68443 14.8636 2.68573C14.8324 2.68703 14.8019 2.69534 14.7744 2.71006L1.21694 9.88256C1.18444 9.90006 1.18444 9.94756 1.21944 9.96256L15.8144 16.8301C15.9294 16.8826 16.0594 16.8826 16.1744 16.8301Z" fill="#FB9347"/>
<path d="M30.6798 23.6026L16.4898 30.9176C16.2648 31.0326 15.9998 30.8701 15.9998 30.6176V17.2326C15.9998 16.9151 16.2123 16.8001 16.3248 16.7426L30.3698 9.50005C30.5948 9.38505 30.8598 9.46255 30.8598 9.80005V23.3051C30.8623 23.4301 30.7923 23.5451 30.6798 23.6026Z" fill="#B55108"/>
<path d="M18.7224 11.5251L10.6599 7.49762L12.1724 6.74512L20.2349 10.7726L18.7224 11.5251Z" fill="#0D1521"/>
<path d="M12.1724 7.19512L19.7824 10.9951L20.2349 10.7726L12.1724 6.74512L10.6599 7.49762L11.1099 7.72262L12.1724 7.19512Z" fill="#B55108"/>
<path opacity="0.7" d="M15.9945 18.7146L1.13696 11.7246V12.2721L15.9945 19.2621L16.102 19.2121L15.9945 18.7146Z" fill="#B55108"/>
<path d="M15.9998 18.7121V19.2596L30.8623 11.6346V11.0771L15.9998 18.7121Z" fill="#A15700"/>
<path d="M9.80957 12.0321C9.80957 11.1621 10.3271 10.9971 10.9671 10.9971C11.6071 10.9971 12.1246 11.1996 12.1246 12.0321C12.1246 12.4171 11.6071 12.7271 10.9671 12.7271C10.3271 12.7271 9.80957 12.4171 9.80957 12.0321Z" fill="#616161"/>
<path d="M10.9678 12.3578C11.5781 12.3578 12.0728 12.0466 12.0728 11.6628C12.0728 11.2789 11.5781 10.9678 10.9678 10.9678C10.3575 10.9678 9.86279 11.2789 9.86279 11.6628C9.86279 12.0466 10.3575 12.3578 10.9678 12.3578Z" fill="#E0E0E0"/>
</svg>
