<svg width="32" height="32" viewBox="0 0 32 32" fill="none" xmlns="http://www.w3.org/2000/svg">
<path opacity="0.5" d="M16.0001 22.6667C21.1547 22.6667 25.3334 18.488 25.3334 13.3333C25.3334 8.17868 21.1547 4 16.0001 4C10.8454 4 6.66675 8.17868 6.66675 13.3333C6.66675 18.488 10.8454 22.6667 16.0001 22.6667Z" fill="#F07114"/>
<path d="M12.8027 10.9509C12.628 9.00561 11.1278 7.19299 10.3996 6.52983L9.99731 6.18577C11.62 4.82168 13.7138 4 15.9996 4C18.0654 4 19.9744 4.67116 21.5206 5.80733C21.7391 6.47049 21.323 7.85615 20.886 8.51929C20.7278 8.75951 20.3688 9.05772 19.9755 9.3404C19.0883 9.97779 17.9688 10.293 17.3996 11.4667C17.2368 11.8022 17.2438 12.1301 17.322 12.4152C17.3783 12.6201 17.4143 12.8429 17.4148 13.0608C17.4167 13.7653 16.7042 14.2744 15.9996 14.2667C14.1663 14.2467 12.9661 12.7692 12.8027 10.9509Z" fill="#F07114"/>
<path d="M17.341 19.1914C18.2632 17.4535 21.3374 17.4535 21.3374 17.4535C24.5404 17.4201 24.9732 15.4753 25.2624 14.4922C24.7447 18.6749 21.4598 21.9997 17.2963 22.5781C16.9951 21.9443 16.6384 20.5154 17.341 19.1914Z" fill="#F07114"/>
<path fill-rule="evenodd" clip-rule="evenodd" d="M24.0046 2.00008C24.3729 1.58856 25.0051 1.55354 25.4166 1.92187C28.4327 4.62139 30.3333 8.54758 30.3333 12.9163C30.3333 20.5849 24.4815 26.8866 16.9999 27.5998V28.3337H18.6666C19.2189 28.3337 19.6666 28.7814 19.6666 29.3337C19.6666 29.8859 19.2189 30.3337 18.6666 30.3337H13.3333C12.781 30.3337 12.3333 29.8859 12.3333 29.3337C12.3333 28.7814 12.781 28.3337 13.3333 28.3337H14.9999V27.6557C10.8656 27.495 7.16708 25.6318 4.58813 22.7503C4.2198 22.3389 4.25482 21.7066 4.66634 21.3383C5.07788 20.9699 5.71006 21.005 6.0784 21.4166C8.41456 24.0267 11.8064 25.667 15.5826 25.667C22.6246 25.667 28.3333 19.9583 28.3333 12.9163C28.3333 9.1401 26.693 5.7483 24.0829 3.41214C23.6713 3.0438 23.6362 2.41162 24.0046 2.00008Z" fill="#F07114"/>
</svg>
