<svg width="121" height="120" viewBox="0 0 121 120" fill="none" xmlns="http://www.w3.org/2000/svg">
    <path
        d="M100.809 93.4882C106.194 87.0086 109.94 79.3272 111.729 71.0938C113.518 62.8605 113.297 54.3174 111.086 46.1872C108.875 38.057 104.739 30.579 99.0262 24.3857C93.3138 18.1924 86.1938 13.466 78.2685 10.6063C70.3432 7.74671 61.8457 6.83795 53.4949 7.95695C45.144 9.07595 37.1856 12.1898 30.2927 17.035C23.3998 21.8803 17.7753 28.3144 13.895 35.7932C10.0146 43.2719 7.99264 51.5752 8.00002 60.0007C8.00285 72.2489 12.3191 84.1048 20.1913 93.4882L20.1163 93.5519C20.3788 93.8669 20.6788 94.1369 20.9488 94.4482C21.2863 94.8344 21.65 95.1982 21.9988 95.5732C23.0488 96.7132 24.1288 97.8082 25.2613 98.8357C25.6063 99.1507 25.9625 99.4432 26.3113 99.7432C27.5113 100.778 28.745 101.761 30.0238 102.676C30.1888 102.788 30.3388 102.934 30.5038 103.051V103.006C39.2867 109.186 49.7642 112.503 60.5038 112.503C71.2434 112.503 81.7209 109.186 90.5038 103.006V103.051C90.6688 102.934 90.815 102.788 90.9838 102.676C92.2588 101.757 93.4963 100.778 94.6963 99.7432C95.045 99.4432 95.4013 99.1469 95.7463 98.8357C96.8788 97.8044 97.9588 96.7132 99.0088 95.5732C99.3575 95.1982 99.7175 94.8344 100.059 94.4482C100.325 94.1369 100.629 93.8669 100.891 93.5481L100.809 93.4882ZM60.5 30.0007C63.8376 30.0007 67.1002 30.9904 69.8753 32.8446C72.6504 34.6988 74.8133 37.3344 76.0905 40.4179C77.3677 43.5014 77.7019 46.8944 77.0508 50.1678C76.3997 53.4412 74.7925 56.4481 72.4324 58.8081C70.0724 61.1681 67.0656 62.7753 63.7922 63.4264C60.5187 64.0775 57.1257 63.7433 54.0422 62.4661C50.9587 61.1889 48.3232 59.026 46.469 56.2509C44.6147 53.4758 43.625 50.2132 43.625 46.8757C43.625 42.4001 45.4029 38.1079 48.5676 34.9432C51.7323 31.7785 56.0245 30.0007 60.5 30.0007ZM30.5263 93.4882C30.5913 88.5643 32.5923 83.864 36.0964 80.4042C39.6004 76.9443 44.3257 75.0032 49.25 75.0007H71.75C76.6743 75.0032 81.3996 76.9443 84.9037 80.4042C88.4077 83.864 90.4087 88.5643 90.4738 93.4882C82.2494 100.899 71.571 105.001 60.5 105.001C49.4291 105.001 38.7506 100.899 30.5263 93.4882Z"
        fill="white" fill-opacity="0.8" />
</svg>
