<svg width="17" height="16" viewBox="0 0 17 16" fill="none" xmlns="http://www.w3.org/2000/svg">
    <path
        d="M4.14319 7.16634C3.66986 7.16634 3.18986 6.99301 2.82319 6.63967C1.59652 5.47301 1.10319 4.19967 1.38986 2.95301C1.72986 1.48634 3.01652 0.833008 4.14319 0.833008C5.26986 0.833008 6.56319 1.49301 6.89652 2.95301C7.18319 4.19967 6.68319 5.47301 5.46319 6.63967C5.09652 6.99301 4.62319 7.16634 4.14319 7.16634ZM2.36319 3.17967C2.10986 4.29301 2.84986 5.27967 3.51652 5.91301C3.86986 6.25301 4.42319 6.24634 4.77652 5.91301C5.44319 5.27967 6.18319 4.29301 5.92319 3.17301C5.69652 2.18634 4.82319 1.83301 4.14986 1.83301C3.46986 1.83301 2.59652 2.18634 2.36319 3.17967Z"
        fill="black" fill-opacity="0.5" />
    <path
        d="M4.16862 4.13314C3.80195 4.13314 3.50195 3.83314 3.50195 3.46647C3.50195 3.0998 3.79529 2.7998 4.16862 2.7998H4.17529C4.54195 2.7998 4.84195 3.0998 4.84195 3.46647C4.84195 3.83314 4.54195 4.13314 4.16862 4.13314Z"
        fill="black" fill-opacity="0.5" />
    <path
        d="M12.823 15.1671C12.3497 15.1671 11.8697 14.9938 11.4963 14.6405C10.263 13.4738 9.763 12.2005 10.0563 10.9471C10.3963 9.48715 11.6897 8.82715 12.823 8.82715C13.9563 8.82715 15.2497 9.48715 15.5897 10.9471C15.8763 12.1938 15.3763 13.4738 14.143 14.6338C13.7763 14.9938 13.303 15.1671 12.823 15.1671ZM12.823 9.83382C12.143 9.83382 11.263 10.1871 11.0297 11.1805C10.7697 12.2938 11.5163 13.2871 12.183 13.9205C12.5363 14.2605 13.0963 14.2605 13.4563 13.9205C14.123 13.2871 14.8697 12.3005 14.6097 11.1871C14.3897 10.1871 13.5097 9.83382 12.823 9.83382Z"
        fill="black" fill-opacity="0.5" />
    <path
        d="M12.8503 12.1331C12.4836 12.1331 12.1836 11.8331 12.1836 11.4665C12.1836 11.0998 12.4769 10.7998 12.8503 10.7998H12.8569C13.2236 10.7998 13.5236 11.0998 13.5236 11.4665C13.5236 11.8331 13.2169 12.1331 12.8503 12.1331Z"
        fill="black" fill-opacity="0.5" />
    <path
        d="M8.49573 13.1663H6.70906C5.93573 13.1663 5.2624 12.6997 4.99573 11.9797C4.7224 11.2597 4.9224 10.4663 5.5024 9.95301L10.8291 5.29301C11.1491 5.01301 11.1557 4.63301 11.0624 4.37301C10.9624 4.11301 10.7091 3.83301 10.2824 3.83301H8.49573C8.2224 3.83301 7.99573 3.60634 7.99573 3.33301C7.99573 3.05967 8.2224 2.83301 8.49573 2.83301H10.2824C11.0557 2.83301 11.7291 3.29967 11.9957 4.01967C12.2691 4.73967 12.0691 5.53301 11.4891 6.04634L6.1624 10.7063C5.8424 10.9863 5.83573 11.3663 5.92906 11.6263C6.02906 11.8863 6.2824 12.1663 6.70906 12.1663H8.49573C8.76906 12.1663 8.99573 12.393 8.99573 12.6663C8.99573 12.9397 8.76906 13.1663 8.49573 13.1663Z"
        fill="black" fill-opacity="0.5" />
</svg>
