<svg width="17" height="16" viewBox="0 0 17 16" fill="none" xmlns="http://www.w3.org/2000/svg">
    <path
        d="M9.42953 11.6134H7.7562C6.66286 11.6134 5.7762 10.6934 5.7762 9.56005C5.7762 9.28672 6.00286 9.06005 6.2762 9.06005C6.54953 9.06005 6.7762 9.28672 6.7762 9.56005C6.7762 10.1401 7.2162 10.6134 7.7562 10.6134H9.42953C9.86286 10.6134 10.2229 10.2267 10.2229 9.76005C10.2229 9.18005 10.0162 9.06672 9.6762 8.94672L6.98953 8.00005C6.46953 7.82005 5.76953 7.43339 5.76953 6.24005C5.76953 5.21339 6.5762 4.38672 7.56286 4.38672H9.2362C10.3295 4.38672 11.2162 5.30672 11.2162 6.44005C11.2162 6.71339 10.9895 6.94005 10.7162 6.94005C10.4429 6.94005 10.2162 6.71339 10.2162 6.44005C10.2162 5.86005 9.7762 5.38672 9.2362 5.38672H7.56286C7.12953 5.38672 6.76953 5.77339 6.76953 6.24005C6.76953 6.82005 6.9762 6.93339 7.3162 7.05339L10.0029 8.00005C10.5229 8.18005 11.2229 8.56672 11.2229 9.76005C11.2162 10.7801 10.4162 11.6134 9.42953 11.6134Z"
        fill="#F07114" />
    <path
        d="M8.49609 12.5C8.22276 12.5 7.99609 12.2733 7.99609 12V4C7.99609 3.72667 8.22276 3.5 8.49609 3.5C8.76943 3.5 8.99609 3.72667 8.99609 4V12C8.99609 12.2733 8.76943 12.5 8.49609 12.5Z"
        fill="#F07114" />
    <path
        d="M10.4967 15.1663H6.49674C2.87674 15.1663 1.33008 13.6197 1.33008 9.99967V5.99967C1.33008 2.37967 2.87674 0.833008 6.49674 0.833008H10.4967C14.1167 0.833008 15.6634 2.37967 15.6634 5.99967V9.99967C15.6634 13.6197 14.1167 15.1663 10.4967 15.1663ZM6.49674 1.83301C3.42341 1.83301 2.33008 2.92634 2.33008 5.99967V9.99967C2.33008 13.073 3.42341 14.1663 6.49674 14.1663H10.4967C13.5701 14.1663 14.6634 13.073 14.6634 9.99967V5.99967C14.6634 2.92634 13.5701 1.83301 10.4967 1.83301H6.49674Z"
        fill="#F07114" />
</svg>
