<svg width="32" height="32" viewBox="0 0 32 32" fill="none" xmlns="http://www.w3.org/2000/svg">
<path d="M14.4974 13.4321C14.4974 13.4321 14.3649 13.0496 14.0774 12.9171C13.7924 12.7846 13.3149 12.7646 13.3149 12.7646L12.5149 22.2271L13.1649 26.8971C13.1649 26.8971 13.3549 27.4496 13.8524 27.4696C14.3474 27.4896 18.4699 27.4696 18.8324 27.4696C19.1949 27.4696 19.3099 26.9921 19.3274 26.7821C19.3474 26.5721 19.3399 26.2196 19.3399 26.2196L21.0999 26.2121C21.0999 26.2121 21.2024 26.9621 21.0324 27.4346C20.8849 27.8446 20.7524 28.1721 20.7549 28.3121C20.7574 28.5121 21.0224 28.7121 21.3274 28.6946C21.6324 28.6746 22.0899 28.2746 22.3949 28.0271C22.6999 27.7796 27.5899 27.8371 27.5899 27.8371C27.5899 27.8371 27.8249 28.2721 28.0874 28.5346C28.2449 28.6921 28.4999 28.7696 28.7299 28.7696C28.9599 28.7696 29.2449 28.4646 29.1874 28.2546C29.1299 28.0446 28.8699 27.5621 28.8249 27.0921C28.8049 26.8796 28.8299 26.2871 28.9349 26.1896C28.9599 26.1671 29.3399 26.1796 29.6949 26.1421C30.2999 26.0796 30.9049 25.2971 30.9799 24.6871C31.0574 24.0771 30.9999 22.1496 30.9999 22.1496L14.4974 13.4321Z" fill="#B3AFAF"/>
<path d="M13.0049 24.0273H31.0124C31.0124 24.0273 31.0549 24.5323 30.9674 24.8573C30.921 25.0299 30.8421 25.1919 30.7349 25.3348L13.1074 25.3323L13.0049 24.0273Z" fill="#9A9A9A"/>
<path d="M6.68747 23.2104L2.87497 24.3904L0.969971 23.7329C0.969971 23.7329 1.03747 20.1479 1.05997 19.7854C1.08247 19.4229 1.17247 19.1054 1.51497 18.8779C1.85497 18.6504 2.80747 18.0829 2.80747 18.0829C2.80747 18.0829 5.73497 13.3854 5.98497 13.0454C6.23497 12.7054 6.54247 12.2904 7.26997 12.2229C7.99747 12.1554 12.4875 12.2104 12.895 12.2329C13.3025 12.2554 13.6075 12.4404 13.6075 13.3254C13.6075 14.2104 13.585 20.9654 13.5625 21.3054C13.54 21.6454 11.8375 22.8929 11.8375 22.8929L6.68747 23.2104Z" fill="#E0E0E0"/>
<path d="M12.2376 27.5072C12.2376 27.5072 12.6026 27.5172 12.8551 27.4822C13.1076 27.4472 13.4876 27.1947 13.5051 26.5972C13.5151 26.2422 13.5626 21.3047 13.5626 21.3047L6.76261 21.3197L4.56261 23.7272L0.970107 23.7322C0.970107 23.7322 0.955107 25.1447 0.965107 25.5222C0.975107 25.9022 2.93011 26.7297 2.93011 26.7297L12.2376 27.5072Z" fill="#F07114"/>
<path d="M0.965095 25.5221H5.06009C5.06009 25.5221 5.93759 23.7721 8.46009 23.8021C12.1651 23.8471 12.2401 27.5046 12.2401 27.5046H2.59009C2.04759 27.5046 1.27259 27.3246 1.07509 26.6396C0.907595 26.0646 0.965095 25.5221 0.965095 25.5221Z" fill="#B55108"/>
<path d="M3.47246 19.065C3.47246 19.065 3.47245 18.6575 3.20495 18.6425C2.93745 18.6275 2.64245 18.795 2.37495 19.0225C2.09245 19.2625 1.95246 19.48 1.89746 19.67C1.81246 19.9525 1.88245 20.205 2.31995 20.2175C2.85495 20.235 11.35 20.18 11.7425 20.1475C12.235 20.105 12.53 19.895 12.515 19.5275C12.5025 19.175 12.2475 19.0625 11.1925 19.05C10.1375 19.0375 3.47246 19.065 3.47246 19.065Z" fill="white" fill-opacity="0.1"/>
<path d="M1.05007 20.2572C1.05007 20.2572 3.60257 20.1772 3.65757 20.2397C3.73507 20.3322 3.75007 21.5372 3.72257 21.7197C3.69507 21.9022 3.45507 22.0297 3.16007 22.0422C2.86507 22.0547 1.00757 22.0847 1.00757 22.0847L1.05007 20.2572Z" fill="#FDEDC5"/>
<path d="M11.56 18.6276C11.955 18.6276 12.095 18.1776 12.095 17.8676V13.9451C12.095 13.6351 11.8975 13.4676 11.28 13.4376C10.66 13.4101 7.83496 13.4426 7.52496 13.4526C7.04746 13.4676 6.72246 13.6776 6.28746 14.2826C6.00496 14.6751 4.26246 17.5601 4.12246 17.7976C3.98246 18.0376 3.81246 18.6701 4.54496 18.6826C5.30246 18.6976 11.56 18.6276 11.56 18.6276Z" fill="#5F6369"/>
<path d="M4.90747 17.9672H11.2075C11.335 17.9672 11.4475 17.8272 11.4475 17.6572C11.4475 17.4872 11.4575 14.8322 11.4625 14.6747C11.4775 14.2397 11.1525 14.1397 10.8725 14.1547C10.59 14.1697 7.74497 14.1597 7.57747 14.1672C7.25497 14.1822 6.93497 14.6147 6.65497 15.0422C6.31747 15.5597 4.90747 17.9672 4.90747 17.9672Z" fill="#AFE3FB"/>
<path d="M5.00498 18.4325C5.03248 19.065 6.04498 19.585 6.29998 19.6C6.55248 19.615 6.70748 19.1225 6.73498 18.46C6.76248 17.7975 6.49748 17.25 6.28498 17.25C6.07498 17.25 4.98248 17.8975 5.00498 18.4325Z" fill="#5F6369"/>
<path d="M5.22505 27.9051C5.24505 29.1551 6.24005 30.9526 8.40505 30.9651C10.57 30.9776 11.695 29.3176 11.625 27.6151C11.555 25.8851 10.2125 24.6626 8.28005 24.7176C6.47255 24.7726 5.19755 26.1776 5.22505 27.9051Z" fill="#4E433D"/>
<path d="M6.77239 27.832C6.78239 28.4895 7.30489 29.4395 8.44489 29.447C9.58489 29.4545 10.1349 28.6295 10.0999 27.732C10.0624 26.8195 9.33489 26.1395 8.37989 26.1545C7.42989 26.167 6.75989 26.9195 6.77239 27.832Z" fill="#C8C8C8"/>
<path d="M21.725 27.9051C21.745 29.1551 22.74 30.9526 24.905 30.9651C27.07 30.9776 28.195 29.3176 28.125 27.6151C28.055 25.8851 26.7125 24.6626 24.78 24.7176C22.9725 24.7726 21.6975 26.1776 21.725 27.9051Z" fill="#4E433D"/>
<path d="M23.2724 27.832C23.2824 28.4895 23.8049 29.4395 24.9449 29.447C26.0824 29.4545 26.6349 28.6295 26.5999 27.732C26.5624 26.8195 25.8349 26.1395 24.8799 26.1545C23.9299 26.167 23.2599 26.9195 23.2724 27.832Z" fill="#C8C8C8"/>
<path d="M14.2175 7.15539C14.2175 6.50039 14.505 6.23789 15.03 6.26539C15.555 6.29039 29.9425 6.21289 30.4125 6.21289C30.8825 6.21289 31.0675 6.71039 31.0675 6.99789C31.0675 7.28539 30.9775 21.8704 30.9975 22.1529C31.015 22.4354 30.9375 22.8279 30.44 22.8804C29.9425 22.9329 15.1875 22.9054 14.8725 22.8804C14.5575 22.8554 14.165 22.5929 14.165 22.2254C14.165 21.8554 14.2175 7.49539 14.2175 7.15539Z" fill="#F07114"/>
<path d="M15.5276 7.72988C15.5276 8.06988 15.4226 20.8074 15.4226 21.1224C15.4226 21.4374 15.5801 21.8049 16.0001 21.8049C16.4201 21.8049 29.3126 21.8299 29.5751 21.8049C29.8376 21.7799 29.9951 21.6224 30.0201 21.2024C30.0451 20.7824 30.0451 7.99488 30.0451 7.57488C30.0451 7.15488 29.6251 7.12988 29.1801 7.12988C28.7351 7.12988 16.1301 7.15488 15.9451 7.18238C15.7626 7.20488 15.5276 7.38988 15.5276 7.72988Z" fill="#FB9951"/>
<path d="M18.6124 22.2504C18.5974 17.6379 18.5649 6.88039 18.6174 6.58789L18.9874 6.65539L19.3599 6.70039C19.3249 7.11289 19.3424 16.2229 19.3624 22.2479L18.6124 22.2504Z" fill="#F07114"/>
<path d="M22.4375 6.62988H23.1875V22.2749H22.4375V6.62988Z" fill="#F07114"/>
<path d="M26.2224 6.64258H26.9724V22.2101H26.2224V6.64258Z" fill="#F07114"/>
</svg>
